<svg xmlns="http://www.w3.org/2000/svg" viewBox="0 0 580 180" style="fill:#fff">
  <path d="M560.5,114.778l-541,0" style="fill:none;stroke:#f90;stroke-width:1px"/>
  <path d="M167.609,95.278l0,-30.064l3.979,0l-0,12.346l15.627,-0l-0,-12.346l3.978,0l0,30.064l-3.978,0l-0,-14.17l-15.627,-0l-0,14.17l-3.979,0Z"/>
  <path d="M211.558,92.592c-1.368,1.162 -2.683,1.982 -3.948,2.461c-1.265,0.478 -2.622,0.718 -4.071,0.718c-2.393,-0 -4.231,-0.585 -5.517,-1.754c-1.285,-1.169 -1.927,-2.662 -1.927,-4.481c-0,-1.066 0.242,-2.04 0.728,-2.922c0.485,-0.882 1.121,-1.589 1.907,-2.123c0.786,-0.533 1.671,-0.936 2.656,-1.21c0.724,-0.191 1.818,-0.376 3.281,-0.553c2.98,-0.356 5.175,-0.78 6.583,-1.272c0.014,-0.506 0.021,-0.827 0.021,-0.964c-0,-1.504 -0.349,-2.563 -1.046,-3.178c-0.944,-0.834 -2.345,-1.251 -4.204,-1.251c-1.737,-0 -3.019,0.304 -3.846,0.912c-0.827,0.609 -1.439,1.685 -1.835,3.23l-3.61,-0.492c0.329,-1.545 0.869,-2.792 1.621,-3.743c0.752,-0.95 1.838,-1.681 3.26,-2.194c1.422,-0.513 3.07,-0.769 4.943,-0.769c1.859,-0 3.37,0.219 4.532,0.656c1.162,0.438 2.017,0.988 2.563,1.651c0.547,0.663 0.93,1.501 1.149,2.512c0.123,0.629 0.184,1.764 0.184,3.405l0,4.921c0,3.432 0.079,5.603 0.236,6.512c0.157,0.909 0.469,1.78 0.933,2.614l-3.855,0c-0.383,-0.765 -0.629,-1.661 -0.738,-2.686Zm-0.308,-8.244c-1.34,0.547 -3.35,1.012 -6.029,1.394c-1.518,0.219 -2.591,0.465 -3.22,0.739c-0.629,0.273 -1.114,0.673 -1.456,1.199c-0.342,0.527 -0.513,1.111 -0.513,1.754c0,0.984 0.373,1.804 1.118,2.461c0.745,0.656 1.835,0.984 3.271,0.984c1.422,0 2.686,-0.311 3.794,-0.933c1.107,-0.622 1.921,-1.473 2.44,-2.553c0.397,-0.834 0.595,-2.065 0.595,-3.692l0,-1.353Z"/>
  <path d="M219.228,88.777l3.65,-0.574c0.205,1.463 0.776,2.584 1.712,3.364c0.937,0.779 2.246,1.168 3.928,1.168c1.695,0 2.953,-0.345 3.773,-1.035c0.82,-0.691 1.23,-1.501 1.23,-2.43c0,-0.834 -0.362,-1.491 -1.086,-1.969c-0.506,-0.328 -1.764,-0.745 -3.774,-1.251c-2.707,-0.684 -4.583,-1.275 -5.629,-1.774c-1.046,-0.499 -1.839,-1.189 -2.379,-2.071c-0.54,-0.882 -0.81,-1.856 -0.81,-2.923c-0,-0.97 0.222,-1.869 0.666,-2.696c0.445,-0.828 1.05,-1.515 1.815,-2.061c0.574,-0.424 1.357,-0.783 2.348,-1.077c0.992,-0.294 2.055,-0.441 3.189,-0.441c1.709,-0 3.21,0.246 4.502,0.738c1.292,0.492 2.245,1.159 2.861,2c0.615,0.841 1.039,1.965 1.271,3.373l-3.609,0.492c-0.164,-1.121 -0.639,-1.996 -1.426,-2.625c-0.786,-0.628 -1.897,-0.943 -3.332,-0.943c-1.695,0 -2.905,0.28 -3.63,0.841c-0.725,0.56 -1.087,1.217 -1.087,1.969c0,0.478 0.151,0.909 0.451,1.292c0.301,0.396 0.773,0.724 1.415,0.984c0.369,0.137 1.456,0.451 3.261,0.943c2.611,0.698 4.433,1.268 5.465,1.713c1.033,0.444 1.843,1.09 2.431,1.938c0.587,0.847 0.881,1.9 0.881,3.158c0,1.23 -0.358,2.389 -1.076,3.476c-0.718,1.087 -1.754,1.928 -3.107,2.523c-1.354,0.594 -2.885,0.892 -4.594,0.892c-2.83,-0 -4.987,-0.588 -6.47,-1.764c-1.484,-1.176 -2.43,-2.919 -2.84,-5.23Z"/>
  <path d="M256.613,88.265l3.815,0.471c-0.602,2.229 -1.716,3.958 -3.343,5.189c-1.627,1.23 -3.705,1.846 -6.234,1.846c-3.186,-0 -5.712,-0.981 -7.578,-2.943c-1.866,-1.962 -2.799,-4.714 -2.799,-8.255c-0,-3.664 0.943,-6.507 2.83,-8.531c1.886,-2.023 4.334,-3.035 7.342,-3.035c2.912,-0 5.291,0.991 7.136,2.974c1.846,1.982 2.769,4.771 2.769,8.367c-0,0.219 -0.007,0.547 -0.021,0.984l-16.242,0c0.137,2.393 0.814,4.225 2.03,5.496c1.217,1.272 2.735,1.907 4.553,1.907c1.354,0 2.509,-0.355 3.466,-1.066c0.957,-0.711 1.716,-1.846 2.276,-3.404Zm-12.12,-5.968l12.161,0c-0.164,-1.832 -0.629,-3.206 -1.394,-4.122c-1.176,-1.422 -2.7,-2.133 -4.573,-2.133c-1.696,0 -3.121,0.568 -4.276,1.702c-1.156,1.135 -1.795,2.653 -1.918,4.553Z"/>
  <path d="M264.98 65.214H268.671V95.278H264.98z"/>
  <path d="M282.515,95.278l-0,-26.516l-9.906,-0l0,-3.548l23.83,0l0,3.548l-9.946,-0l0,26.516l-3.978,0Z"/>
  <path d="M301.751,95.278l-6.665,-21.779l3.814,0l3.466,12.571l1.292,4.676c0.055,-0.232 0.431,-1.729 1.128,-4.491l3.466,-12.756l3.794,0l3.261,12.633l1.087,4.163l1.251,-4.204l3.732,-12.592l3.589,0l-6.809,21.779l-3.835,0l-3.466,-13.043l-0.84,-3.711l-4.41,16.754l-3.855,0Z"/>
  <path d="M342.972,88.265l3.814,0.471c-0.601,2.229 -1.716,3.958 -3.343,5.189c-1.627,1.23 -3.705,1.846 -6.234,1.846c-3.186,-0 -5.711,-0.981 -7.578,-2.943c-1.866,-1.962 -2.799,-4.714 -2.799,-8.255c0,-3.664 0.943,-6.507 2.83,-8.531c1.887,-2.023 4.334,-3.035 7.342,-3.035c2.912,-0 5.291,0.991 7.137,2.974c1.845,1.982 2.768,4.771 2.768,8.367c0,0.219 -0.007,0.547 -0.02,0.984l-16.243,0c0.137,2.393 0.814,4.225 2.031,5.496c1.217,1.272 2.734,1.907 4.552,1.907c1.354,0 2.509,-0.355 3.466,-1.066c0.957,-0.711 1.716,-1.846 2.277,-3.404Zm-12.12,-5.968l12.161,0c-0.164,-1.832 -0.629,-3.206 -1.395,-4.122c-1.176,-1.422 -2.7,-2.133 -4.573,-2.133c-1.695,0 -3.121,0.568 -4.276,1.702c-1.155,1.135 -1.794,2.653 -1.917,4.553Z"/>
  <path d="M365.633,92.592c-1.367,1.162 -2.683,1.982 -3.948,2.461c-1.265,0.478 -2.622,0.718 -4.071,0.718c-2.392,-0 -4.231,-0.585 -5.516,-1.754c-1.285,-1.169 -1.928,-2.662 -1.928,-4.481c-0,-1.066 0.243,-2.04 0.728,-2.922c0.485,-0.882 1.121,-1.589 1.907,-2.123c0.786,-0.533 1.672,-0.936 2.656,-1.21c0.725,-0.191 1.818,-0.376 3.281,-0.553c2.981,-0.356 5.175,-0.78 6.583,-1.272c0.014,-0.506 0.021,-0.827 0.021,-0.964c-0,-1.504 -0.349,-2.563 -1.046,-3.178c-0.944,-0.834 -2.345,-1.251 -4.204,-1.251c-1.737,-0 -3.018,0.304 -3.846,0.912c-0.827,0.609 -1.438,1.685 -1.835,3.23l-3.609,-0.492c0.328,-1.545 0.868,-2.792 1.62,-3.743c0.752,-0.95 1.839,-1.681 3.261,-2.194c1.421,-0.513 3.069,-0.769 4.942,-0.769c1.859,-0 3.37,0.219 4.532,0.656c1.162,0.438 2.017,0.988 2.564,1.651c0.546,0.663 0.929,1.501 1.148,2.512c0.123,0.629 0.185,1.764 0.185,3.405l-0,4.921c-0,3.432 0.078,5.603 0.235,6.512c0.158,0.909 0.469,1.78 0.934,2.614l-3.856,0c-0.383,-0.765 -0.629,-1.661 -0.738,-2.686Zm-0.308,-8.244c-1.34,0.547 -3.349,1.012 -6.029,1.394c-1.518,0.219 -2.591,0.465 -3.22,0.739c-0.629,0.273 -1.114,0.673 -1.456,1.199c-0.342,0.527 -0.513,1.111 -0.513,1.754c0,0.984 0.373,1.804 1.118,2.461c0.745,0.656 1.836,0.984 3.271,0.984c1.422,0 2.687,-0.311 3.794,-0.933c1.107,-0.622 1.921,-1.473 2.44,-2.553c0.397,-0.834 0.595,-2.065 0.595,-3.692l0,-1.353Z"/>
  <path d="M374.8,95.278l-0,-30.064l3.691,0l0,17.145l8.737,-8.86l4.778,0l-8.326,8.08l9.167,13.699l-4.553,0l-7.198,-11.135l-2.605,2.502l0,8.633l-3.691,0Z"/>
  <path d="M394.303,88.777l3.65,-0.574c0.205,1.463 0.776,2.584 1.713,3.364c0.936,0.779 2.245,1.168 3.927,1.168c1.695,0 2.953,-0.345 3.773,-1.035c0.821,-0.691 1.231,-1.501 1.231,-2.43c-0,-0.834 -0.363,-1.491 -1.087,-1.969c-0.506,-0.328 -1.764,-0.745 -3.774,-1.251c-2.707,-0.684 -4.583,-1.275 -5.629,-1.774c-1.046,-0.499 -1.839,-1.189 -2.379,-2.071c-0.54,-0.882 -0.81,-1.856 -0.81,-2.923c-0,-0.97 0.222,-1.869 0.666,-2.696c0.445,-0.828 1.05,-1.515 1.815,-2.061c0.575,-0.424 1.357,-0.783 2.349,-1.077c0.991,-0.294 2.054,-0.441 3.189,-0.441c1.709,-0 3.209,0.246 4.501,0.738c1.292,0.492 2.246,1.159 2.861,2c0.615,0.841 1.039,1.965 1.271,3.373l-3.609,0.492c-0.164,-1.121 -0.639,-1.996 -1.425,-2.625c-0.786,-0.628 -1.897,-0.943 -3.333,-0.943c-1.695,0 -2.905,0.28 -3.63,0.841c-0.724,0.56 -1.087,1.217 -1.087,1.969c0,0.478 0.151,0.909 0.452,1.292c0.3,0.396 0.772,0.724 1.415,0.984c0.369,0.137 1.456,0.451 3.26,0.943c2.612,0.698 4.433,1.268 5.466,1.713c1.032,0.444 1.842,1.09 2.43,1.938c0.588,0.847 0.882,1.9 0.882,3.158c-0,1.23 -0.359,2.389 -1.077,3.476c-0.718,1.087 -1.753,1.928 -3.107,2.523c-1.353,0.594 -2.885,0.892 -4.594,0.892c-2.83,-0 -4.987,-0.588 -6.47,-1.764c-1.483,-1.176 -2.43,-2.919 -2.84,-5.23Z"/>
</svg>