<svg xmlns="http://www.w3.org/2000/svg" xml:space="preserve" style="fill-rule:evenodd;clip-rule:evenodd;stroke-miterlimit:2" viewBox="0 0 512 256">
  <path d="M.074 0h.152v-.293h.269V0h.152v-.71H.495v.289H.226V-.71H.074V0Z" style="fill:#f90;fill-rule:nonzero" transform="matrix(116.667 0 -24.798 116.667 65.807 117.333)"/>
  <path d="M.019 0h.157l.052-.151h.273L.553 0h.158L.455-.71h-.18L.019 0Zm.252-.276L.365-.55l.094.274H.271Z" style="fill:#f90;fill-rule:nonzero" transform="matrix(116.667 0 -24.798 116.667 146.424 117.333)"/>
  <path d="M.355.016c.168 0 .274-.082.274-.215 0-.108-.065-.179-.262-.219C.252-.442.219-.464.219-.517.219-.567.261-.6.33-.6c.081 0 .128.048.136.122l.152-.008c-.015-.14-.11-.24-.286-.24-.167 0-.266.087-.266.214 0 .121.07.171.252.212.133.03.158.059.158.108 0 .054-.044.082-.119.082-.092 0-.14-.047-.152-.131l-.153.007c.011.152.119.25.303.25Z" style="fill:#f90;fill-rule:nonzero" transform="matrix(116.667 0 -24.798 116.667 224.357 117.333)"/>
  <path d="M.074 0h.502v-.128h-.35v-.165h.33v-.126h-.33v-.163h.342V-.71H.074V0Z" style="fill:#f90;fill-rule:nonzero" transform="matrix(116.667 0 -24.798 116.667 299.607 117.333)"/>
  <path d="M.074 0h.479v-.128H.226V-.71H.074V0Z" style="fill:#f90;fill-rule:nonzero" transform="matrix(116.667 0 -24.798 116.667 369.84 117.333)"/>
  <path d="M.223 0h.153v-.582h.213V-.71H.011v.128h.212V0Z" style="fill:#f90;fill-rule:nonzero" transform="matrix(116.667 0 -24.798 116.667 10.565 221.5)"/>
  <path d="M.229 0h.162l.116-.454L.623 0h.164l.191-.71H.819l-.121.5-.124-.5H.441l-.123.5-.122-.5H.037L.229 0Z" style="fill:#f90;fill-rule:nonzero" transform="matrix(116.667 0 -24.798 116.667 76.949 221.5)"/>
  <path d="M.074 0h.502v-.128h-.35v-.165h.33v-.126h-.33v-.163h.342V-.71H.074V0Z" style="fill:#f90;fill-rule:nonzero" transform="matrix(116.667 0 -24.798 116.667 189.882 221.5)"/>
  <path d="M.019 0h.157l.052-.151h.273L.553 0h.158L.455-.71h-.18L.019 0Zm.252-.276L.365-.55l.094.274H.271Z" style="fill:#f90;fill-rule:nonzero" transform="matrix(116.667 0 -24.798 116.667 260.115 221.5)"/>
  <path d="M.074 0h.152v-.209L.3-.295.504 0h.173L.4-.397.661-.71H.484L.226-.4v-.31H.074V0Z" style="fill:#f90;fill-rule:nonzero" transform="matrix(116.667 0 -24.798 116.667 340.965 221.5)"/>
  <path d="M.355.016c.168 0 .274-.082.274-.215 0-.108-.065-.179-.262-.219C.252-.442.219-.464.219-.517.219-.567.261-.6.33-.6c.081 0 .128.048.136.122l.152-.008c-.015-.14-.11-.24-.286-.24-.167 0-.266.087-.266.214 0 .121.07.171.252.212.133.03.158.059.158.108 0 .054-.044.082-.119.082-.092 0-.14-.047-.152-.131l-.153.007c.011.152.119.25.303.25Z" style="fill:#f90;fill-rule:nonzero" transform="matrix(116.667 0 -24.798 116.667 414.349 221.5)"/>
  <path d="M-105.197 137.925h17.718v-34.184h31.398v34.184h17.719V55.106h-17.719v33.717h-31.398V55.106h-17.718v82.819Zm74.2 0h18.313l6.066-17.617h31.844l6.065 17.617h18.43L19.86 55.106H-1.136l-29.861 82.819Zm29.394-32.186L9.362 73.773l10.965 31.966h-21.93Zm87.732 34.052c19.602 0 31.959-9.557 31.959-25.071 0-12.603-7.577-20.889-30.558-25.557-13.423-2.8-17.275-5.368-17.275-11.553 0-5.835 4.902-9.685 12.956-9.685 9.455 0 14.941 5.601 15.874 14.236l17.721-.933c-1.749-16.334-12.823-27.989-33.361-27.989-19.485 0-31.026 10.14-31.026 24.955 0 14.12 8.16 19.955 29.391 24.74 15.525 3.5 18.443 6.885 18.443 12.603 0 6.301-5.136 9.569-13.89 9.569-10.739 0-16.342-5.485-17.74-15.287l-17.837.817c1.283 17.733 13.873 29.155 35.343 29.155Zm42.474-1.866h58.552v-14.919h-40.834v-19.265h38.5V89.056h-38.5V70.025h39.9V55.106h-57.618v82.819Zm70.233 0h55.869v-14.919h-38.15v-67.9h-17.719v82.819Z" style="fill:none;fill-rule:nonzero;stroke:#000;stroke-width:9.26px" transform="matrix(1 0 -.213 1 199.963 -20.599)"/>
  <path d="M-143.056 242.091h17.836v-67.9h24.85v-14.918h-67.419v14.918h24.733v67.9Zm67.081 0h18.897l13.531-52.957 13.532 52.957h19.131l22.28-82.818H-7.152l-14.114 58.323-14.465-58.323h-15.514l-14.348 58.323-14.232-58.323h-18.547l22.397 82.818Zm94.853 0H77.43v-14.918H36.596v-19.265h38.5v-14.685h-38.5v-19.032h39.9v-14.918H18.878v82.818Zm63.816 0h18.314l6.065-17.616h31.844l6.066 17.616h18.43l-29.861-82.818h-20.996l-29.862 82.818Zm29.395-32.185 10.965-31.967 10.964 31.967h-21.929Zm57.872 32.185h17.719v-24.378l8.633-10.032 23.8 34.41h20.183l-32.316-46.308 30.45-36.51h-20.65l-30.1 36.16v-36.16h-17.719v82.818Zm106.16 1.867c19.602 0 31.959-9.557 31.959-25.071 0-12.604-7.577-20.889-30.558-25.557-13.424-2.801-17.276-5.368-17.276-11.553 0-5.835 4.903-9.686 12.957-9.686 9.454 0 14.94 5.602 15.874 14.237l17.72-.933c-1.748-16.334-12.822-27.989-33.361-27.989-19.485 0-31.025 10.14-31.025 24.954 0 14.121 8.16 19.956 29.391 24.74 15.524 3.501 18.442 6.885 18.442 12.603 0 6.302-5.135 9.57-13.89 9.57-10.738 0-16.341-5.485-17.74-15.288l-17.836.817c1.283 17.734 13.873 29.156 35.343 29.156Z" style="fill:none;fill-rule:nonzero;stroke:#000;stroke-width:9.26px" transform="matrix(1 0 -.213 1 222.105 -20.599)"/>
  <path d="M.074 0h.152v-.293h.269V0h.152v-.71H.495v.289H.226V-.71H.074V0Z" style="fill:#fff;fill-rule:nonzero" transform="matrix(116.667 0 -24.798 116.667 56.807 117.333)"/>
  <path d="M.019 0h.157l.052-.151h.273L.553 0h.158L.455-.71h-.18L.019 0Zm.252-.276L.365-.55l.094.274H.271Z" style="fill:#fff;fill-rule:nonzero" transform="matrix(116.667 0 -24.798 116.667 137.424 117.333)"/>
  <path d="M.355.016c.168 0 .274-.082.274-.215 0-.108-.065-.179-.262-.219C.252-.442.219-.464.219-.517.219-.567.261-.6.33-.6c.081 0 .128.048.136.122l.152-.008c-.015-.14-.11-.24-.286-.24-.167 0-.266.087-.266.214 0 .121.07.171.252.212.133.03.158.059.158.108 0 .054-.044.082-.119.082-.092 0-.14-.047-.152-.131l-.153.007c.011.152.119.25.303.25Z" style="fill:#fff;fill-rule:nonzero" transform="matrix(116.667 0 -24.798 116.667 215.357 117.333)"/>
  <path d="M.074 0h.502v-.128h-.35v-.165h.33v-.126h-.33v-.163h.342V-.71H.074V0Z" style="fill:#fff;fill-rule:nonzero" transform="matrix(116.667 0 -24.798 116.667 290.607 117.333)"/>
  <path d="M.074 0h.479v-.128H.226V-.71H.074V0Z" style="fill:#fff;fill-rule:nonzero" transform="matrix(116.667 0 -24.798 116.667 360.84 117.333)"/>
  <path d="M.223 0h.153v-.582h.213V-.71H.011v.128h.212V0Z" style="fill:#fff;fill-rule:nonzero" transform="matrix(116.667 0 -24.798 116.667 1.565 221.5)"/>
  <path d="M.229 0h.162l.116-.454L.623 0h.164l.191-.71H.819l-.121.5-.124-.5H.441l-.123.5-.122-.5H.037L.229 0Z" style="fill:#fff;fill-rule:nonzero" transform="matrix(116.667 0 -24.798 116.667 67.949 221.5)"/>
  <path d="M.074 0h.502v-.128h-.35v-.165h.33v-.126h-.33v-.163h.342V-.71H.074V0Z" style="fill:#fff;fill-rule:nonzero" transform="matrix(116.667 0 -24.798 116.667 180.882 221.5)"/>
  <path d="M.019 0h.157l.052-.151h.273L.553 0h.158L.455-.71h-.18L.019 0Zm.252-.276L.365-.55l.094.274H.271Z" style="fill:#fff;fill-rule:nonzero" transform="matrix(116.667 0 -24.798 116.667 251.115 221.5)"/>
  <path d="M.074 0h.152v-.209L.3-.295.504 0h.173L.4-.397.661-.71H.484L.226-.4v-.31H.074V0Z" style="fill:#fff;fill-rule:nonzero" transform="matrix(116.667 0 -24.798 116.667 331.965 221.5)"/>
  <path d="M.355.016c.168 0 .274-.082.274-.215 0-.108-.065-.179-.262-.219C.252-.442.219-.464.219-.517.219-.567.261-.6.33-.6c.081 0 .128.048.136.122l.152-.008c-.015-.14-.11-.24-.286-.24-.167 0-.266.087-.266.214 0 .121.07.171.252.212.133.03.158.059.158.108 0 .054-.044.082-.119.082-.092 0-.14-.047-.152-.131l-.153.007c.011.152.119.25.303.25Z" style="fill:#fff;fill-rule:nonzero" transform="matrix(116.667 0 -24.798 116.667 405.349 221.5)"/>
</svg>
